<svg xmlns="http://www.w3.org/2000/svg" viewBox="0 0 512 512">
  <!-- Background gradient -->
  <defs>
    <linearGradient id="grad1" x1="0%" y1="0%" x2="100%" y2="100%">
      <stop offset="0%" style="stop-color:#6366f1;stop-opacity:1" />
      <stop offset="100%" style="stop-color:#a855f7;stop-opacity:1" />
    </linearGradient>
    <filter id="shadow">
      <feDropShadow dx="0" dy="4" stdDeviation="8" flood-opacity="0.3"/>
    </filter>
  </defs>
  
  <!-- Rounded square background -->
  <rect width="512" height="512" rx="102" fill="url(#grad1)"/>
  
  <!-- Toolbox/Toolkit icon with shadow -->
  <g filter="url(#shadow)">
    <!-- Main box -->
    <rect x="102" y="179" width="308" height="230" rx="20" fill="none" stroke="white" stroke-width="16"/>
    
    <!-- Handle -->
    <path d="M 179 179 Q 179 128, 256 128 Q 333 128, 333 179" fill="none" stroke="white" stroke-width="16" stroke-linecap="round"/>
    
    <!-- Tools inside -->
    <!-- Wrench -->
    <path d="M 154 256 L 179 281 M 179 256 L 154 281" stroke="white" stroke-width="13" stroke-linecap="round"/>
    
    <!-- Screwdriver -->
    <line x1="256" y1="246" x2="256" y2="318" stroke="white" stroke-width="13" stroke-linecap="round"/>
    <circle cx="256" cy="235" r="10" fill="white"/>
    
    <!-- Gear -->
    <circle cx="346" cy="281" r="26" fill="none" stroke="white" stroke-width="10"/>
    <circle cx="346" cy="281" r="13" fill="white"/>
    
    <!-- Small gear teeth -->
    <circle cx="346" cy="255" r="4" fill="white"/>
    <circle cx="346" cy="307" r="4" fill="white"/>
    <circle cx="320" cy="281" r="4" fill="white"/>
    <circle cx="372" cy="281" r="4" fill="white"/>
  </g>
  
  <!-- Sparkle effects -->
  <circle cx="435" cy="128" r="10" fill="white" opacity="0.8"/>
  <circle cx="77" cy="384" r="8" fill="white" opacity="0.6"/>
  <circle cx="435" cy="384" r="6" fill="white" opacity="0.5"/>
  <circle cx="77" cy="128" r="5" fill="white" opacity="0.4"/>
</svg>
